<svg aria-hidden="true" style="position: absolute; width: 0; height: 0; overflow: hidden;" xmlns="http://www.w3.org/2000/svg" >
<defs>
<symbol id="normal" viewBox="0 0 18 18">
<path d="M15.63 3.458c-0.383-0.383-0.838-0.687-1.339-0.895s-1.037-0.314-1.579-0.314c-0.542 0-1.078 0.107-1.579 0.314s-0.955 0.511-1.339 0.895l-0.795 0.795-0.795-0.795c-0.774-0.774-1.823-1.208-2.917-1.208s-2.144 0.435-2.917 1.208c-0.774 0.774-1.208 1.823-1.208 2.917s0.435 2.144 1.208 2.917l6.63 6.63 6.63-6.63c0.383-0.383 0.687-0.838 0.895-1.338s0.314-1.037 0.314-1.579c0-0.542-0.107-1.078-0.314-1.579s-0.512-0.955-0.895-1.338z"></path>
</symbol>
<symbol id="active" viewBox="0 0 18 18">
<path fill="#3470ff" style="fill: var(--color2, #3470ff); stroke: var(--color2, #3470ff)" stroke="#3470ff" stroke-linejoin="round" stroke-linecap="round" stroke-miterlimit="4" stroke-width="1" d="M15.63 3.458c-0.383-0.383-0.838-0.687-1.339-0.895s-1.037-0.314-1.579-0.314c-0.542 0-1.078 0.107-1.579 0.314s-0.955 0.511-1.339 0.895l-0.795 0.795-0.795-0.795c-0.774-0.774-1.823-1.208-2.917-1.208s-2.144 0.435-2.917 1.208c-0.774 0.774-1.208 1.823-1.208 2.917s0.435 2.144 1.208 2.917l6.63 6.63 6.63-6.63c0.383-0.383 0.687-0.838 0.895-1.338s0.314-1.037 0.314-1.579c0-0.542-0.107-1.078-0.314-1.579s-0.512-0.955-0.895-1.338z"></path>
</symbol>
</defs>
</svg>
